<?xml version="1.0" encoding="UTF-8" standalone="no"?>
<!-- Created with Inkscape (http://www.inkscape.org/) -->

<svg
   version="1.1"
   id="svg2"
   xml:space="preserve"
   width="227.2261"
   height="200.16533"
   viewBox="0 0 227.22611 200.16533"
   sodipodi:docname="logo.svg"
   inkscape:version="1.1 (c4e8f9ed74, 2021-05-24)"
   xmlns:inkscape="http://www.inkscape.org/namespaces/inkscape"
   xmlns:sodipodi="http://sodipodi.sourceforge.net/DTD/sodipodi-0.dtd"
   xmlns:xlink="http://www.w3.org/1999/xlink"
   xmlns="http://www.w3.org/2000/svg"
   xmlns:svg="http://www.w3.org/2000/svg"><defs
     id="defs6"><linearGradient
       inkscape:collect="always"
       id="linearGradient1187"><stop
         style="stop-color:#a8c0ff;stop-opacity:1;"
         offset="0"
         id="stop1183" /><stop
         style="stop-color:#3f2b96;stop-opacity:1"
         offset="1"
         id="stop1185" /></linearGradient><linearGradient
       inkscape:collect="always"
       xlink:href="#linearGradient1187"
       id="linearGradient1189"
       x1="2103.8015"
       y1="5191.644"
       x2="3801.8301"
       y2="5739.7402"
       gradientUnits="userSpaceOnUse" /></defs><sodipodi:namedview
     id="namedview4"
     pagecolor="#ffffff"
     bordercolor="#999999"
     borderopacity="1"
     inkscape:pageshadow="0"
     inkscape:pageopacity="0"
     inkscape:pagecheckerboard="0"
     showgrid="false"
     inkscape:zoom="3.981944"
     inkscape:cx="113.01013"
     inkscape:cy="75.088952"
     inkscape:window-width="5120"
     inkscape:window-height="2059"
     inkscape:window-x="0"
     inkscape:window-y="0"
     inkscape:window-maximized="1"
     inkscape:current-layer="g8" /><g
     id="g8"
     inkscape:groupmode="layer"
     inkscape:label="ink_ext_XXXXXX"
     transform="matrix(1.3333333,0,0,-1.3333333,-279.68455,821.75598)"><g
       id="g10"
       transform="scale(0.1)"
       style="fill:url(#linearGradient1189);fill-opacity:1"><path
         d="m 2491.87,5251.05 c -61.6,-148.07 -241.06,-119.04 -297.33,-101.87 -56.64,17.29 -82.92,-1.18 -93.58,37.9 -10.66,39.1 2.37,28.44 67.52,94.77 65.15,66.34 111.35,86.48 215.59,93.58 104.25,7.11 174.13,73.45 174.13,73.45 -14.21,-82.92 -90.02,-87.66 -214.4,-110.17 -124.38,-22.5 -182.42,-143.33 -182.42,-143.33 125.56,171.76 282.71,136.22 304.82,133.06 22.12,-3.15 193.48,20.54 176.9,95.56 -16.59,75.02 -62.39,33.17 -115.3,102.76 -52.91,69.6 -10.27,137.31 -10.27,137.31 -74.23,-127.14 53.11,-187.95 53.11,-187.95 -139.18,8.29 -151.62,125.56 -151.62,125.56 l 34.35,-8.29 -37.32,29.62 c -5.92,29.61 3.95,66.73 3.95,66.73 l 24.09,-16.01 -18.56,33.77 c 3.56,7.9 10.27,20.14 10.27,20.14 l 13.42,-12.24 -5.92,24.88 c 10.66,23.69 46.2,54.49 46.2,54.49 l 31.69,-40.28 -15.7,53.31 19.84,9.48 10.37,-36.13 -4.74,39.08 c 118.45,67.53 220.33,36.53 220.33,36.53 -48.57,-20.33 -59.23,-57.65 -59.23,-57.65 14.21,31.59 83.71,57.65 83.71,57.65 l 22.11,-15 c -120.03,-27.64 -120.03,-109.77 -120.03,-109.77 11.05,-1.58 23.09,-5.93 23.09,-5.93 -20.73,-94.76 -116.68,-106.61 -116.68,-106.61 125.57,7.11 131.49,112.54 131.49,112.54 l 101.87,-187.17 -3.94,-18.06 -50.55,85.98 -105.82,-1.58 3.95,-10.27 93.97,-3.94 62.39,-105.83 c 0,0 -23.69,-15 -32.38,-16.58 l 5.53,-18.16 c 0,0 108.98,33.14 227.44,-41.48 l -78.18,48.59 c 0,0 516.46,111.34 554.37,122.4 37.91,11.06 60.02,55.28 102.67,42.65 42.64,-12.64 18.95,-25.28 58.44,-63.18 0,0 -60.02,-44.03 -96.35,-38.6 -36.33,5.43 -3.15,32.28 -36.33,5.43 -33.16,-26.85 -210.06,-131.09 -334.83,-77.39 0,0 -11.06,-19.77 -31.59,-39.9 -20.53,-20.12 -218.5,-99.71 -218.5,-99.71 0,0 186.91,-416.35 -185.83,-653.26 0,0 211.6,203.98 -3.16,469.84 0,0 93.58,-128.29 23.69,-300.05 0,0 10.66,118.46 -127.93,203.74 -138.6,85.29 -203.16,75.02 -217.37,126.16 0,0 58.64,34.94 64.56,89.43"
         style="fill:url(#linearGradient1189);fill-opacity:1.0;fill-rule:nonzero;stroke:none"
         id="path32" /><path
         d="m 2900.54,6163.17 c 4.77,-16.91 12.01,-32.87 20.52,-47.91 8.49,-15.06 18.44,-29.15 29.54,-42.08 22.26,-25.85 49.1,-47.04 78.73,-62.56 14.79,-7.76 30.04,-14.59 45.88,-19.88 3.9,-1.43 7.85,-2.76 11.88,-3.86 l 12,-3.51 c 8.18,-1.83 16.13,-4.18 24.42,-5.52 l 12.3,-2.31 12.42,-1.74 c 8.24,-1.3 16.63,-1.88 24.94,-2.77 l 12.94,-1.19 13.28,-1.13 26.6,-2.65 c 17.74,-2 35.52,-4.09 53.35,-6.93 17.81,-2.75 35.7,-5.88 53.54,-10.11 35.66,-8.14 71.59,-19.47 106.38,-36.67 17.31,-8.72 34.25,-19.06 50.12,-31.25 15.84,-12.22 30.46,-26.38 43.38,-41.84 25.96,-31.02 44.46,-66.81 57.83,-102.68 6.64,-18.01 12.14,-36.06 16.93,-54.26 4.64,-18.89 8.03,-38.2 10.09,-57.74 1.97,-19.57 2.02,-39.35 0.92,-59.01 -1.35,-19.66 -4.25,-39.18 -8.54,-58.3 -8.93,-38.2 -23.7,-74.43 -42.36,-107.59 -18.55,-33.26 -41.13,-63.43 -64.63,-91.3 -5.87,-6.97 -11.83,-13.78 -17.66,-20.41 l -8.97,-10.09 c -3.37,-3.78 -6.64,-7.13 -9.91,-10.49 -12.98,-13.11 -25.27,-24.75 -36.87,-36.87 -11.45,-12.11 -22.45,-24.22 -32.29,-37.07 -9.78,-12.85 -18.25,-26.44 -25.44,-40.69 -7.22,-14.25 -12.84,-29.34 -16.49,-45.1 -3.77,-15.74 -5.75,-32.16 -5.71,-48.87 -0.06,-16.71 1.57,-33.71 4.65,-50.69 l 2.57,-12.73 c 0.83,-4.27 2.09,-8.43 3.14,-12.67 1.91,-8.57 4.78,-16.85 7.25,-25.38 -9.56,14.85 -18.41,30.38 -25.58,46.92 -6.97,16.58 -12.74,33.97 -16.34,52.13 -3.51,18.14 -5.12,37 -4.06,55.98 1.11,18.95 4.68,37.94 10.34,56.27 11.51,36.69 31.44,70.09 53.61,99.42 11.02,14.64 22.64,28.64 32.86,41.78 2.48,3.26 4.96,6.51 7.08,9.56 l 7.43,10.44 c 5.06,7.09 9.96,14.04 14.68,21.02 19.01,27.8 35.43,56.21 48.73,85.42 13.17,29.23 23.32,59.12 29.26,89.45 3.13,15.13 5.14,30.39 6.12,45.69 1.12,15.28 1.25,30.65 0.09,46 -1,15.36 -3.03,30.73 -6.12,46.02 -3.22,15.91 -7.02,31.68 -11.61,46.86 -9.31,30.33 -22.05,58.42 -39.75,82.37 -17.67,23.93 -40.37,43.91 -67.22,60.14 -27,16.01 -57.48,28.54 -89.5,38.39 -31.92,10.07 -65.27,18.04 -98.99,24.91 l -25.43,4.91 -12.77,2.28 -13.1,2.41 c -9.01,1.76 -18.02,3.32 -26.91,5.76 l -13.35,3.36 -13.21,3.98 c -8.84,2.46 -17.44,5.97 -26.1,8.94 l -12.77,5.27 c -4.28,1.69 -8.47,3.62 -12.61,5.65 -16.71,7.69 -32.76,16.91 -47.8,27.48 -30.12,21.02 -56.62,47.25 -76.08,77.78 -19.45,30.35 -33.43,64.22 -37.63,99.26"
         style="fill:url(#linearGradient1189);fill-opacity:1.0;fill-rule:nonzero;stroke:none"
         id="path34" /><path
         d="m 2758.08,5660.65 -8.85,3.39 168.86,440.78 8.84,-3.39 -168.85,-440.78"
         style="fill:url(#linearGradient1189);fill-opacity:1.0;fill-rule:nonzero;stroke:none"
         id="path36" /><path
         d="m 3350.27,4987.9 -414.79,247.24 4.85,8.14 414.79,-247.24 -4.85,-8.14"
         style="fill:url(#linearGradient1189);fill-opacity:1.0;fill-rule:nonzero;stroke:none"
         id="path38" /><path
         d="m 2857.9,5526.76 832.11,203.6 6.99,-31.1 z"
         style="fill:url(#linearGradient1189);fill-opacity:1.0;fill-rule:nonzero;stroke:none"
         id="path40" /><path
         d="m 3801.83,5739.74 -164.29,21.67 56.68,-46.42 -30.7,-66.53 138.31,91.28"
         style="fill:url(#linearGradient1189);fill-opacity:1.0;fill-rule:nonzero;stroke:none"
         id="path42" /></g></g></svg>
